<mxfile host="Electron" modified="2024-07-08T09:34:12.380Z" agent="Mozilla/5.0 (Macintosh; Intel Mac OS X 10_15_7) AppleWebKit/537.36 (KHTML, like Gecko) draw.io/21.2.8 Chrome/112.0.5615.165 Electron/24.2.0 Safari/537.36" etag="IuueYOn_807qAIXku3LP" version="21.2.8" type="device">
  <diagram name="Page-1" id="A_R1ksriTNdyYSGnAM3n">
    <mxGraphModel dx="821" dy="530" grid="1" gridSize="10" guides="1" tooltips="1" connect="1" arrows="1" fold="1" page="1" pageScale="1" pageWidth="1169" pageHeight="827" math="0" shadow="0">
      <root>
        <mxCell id="0" />
        <mxCell id="1" parent="0" />
        <mxCell id="1vNkuXaYnxZmw4keYtQA-1" value="&lt;font style=&quot;font-size: 20px;&quot;&gt;Client&lt;/font&gt;" style="rounded=0;whiteSpace=wrap;html=1;fillColor=#ffe6cc;strokeColor=#d79b00;" parent="1" vertex="1">
          <mxGeometry x="240" y="80" width="120" height="60" as="geometry" />
        </mxCell>
        <mxCell id="1vNkuXaYnxZmw4keYtQA-2" value="&lt;font style=&quot;font-size: 20px;&quot;&gt;Server&lt;/font&gt;" style="rounded=0;whiteSpace=wrap;html=1;fillColor=#dae8fc;strokeColor=#6c8ebf;" parent="1" vertex="1">
          <mxGeometry x="520" y="80" width="120" height="60" as="geometry" />
        </mxCell>
        <mxCell id="1vNkuXaYnxZmw4keYtQA-3" value="" style="endArrow=none;html=1;rounded=0;entryX=0.5;entryY=1;entryDx=0;entryDy=0;" parent="1" target="1vNkuXaYnxZmw4keYtQA-1" edge="1">
          <mxGeometry width="50" height="50" relative="1" as="geometry">
            <mxPoint x="300" y="420" as="sourcePoint" />
            <mxPoint x="540" y="290" as="targetPoint" />
          </mxGeometry>
        </mxCell>
        <mxCell id="1vNkuXaYnxZmw4keYtQA-4" value="" style="endArrow=none;html=1;rounded=0;entryX=0.5;entryY=1;entryDx=0;entryDy=0;" parent="1" target="1vNkuXaYnxZmw4keYtQA-2" edge="1">
          <mxGeometry width="50" height="50" relative="1" as="geometry">
            <mxPoint x="580" y="420" as="sourcePoint" />
            <mxPoint x="590" y="160" as="targetPoint" />
          </mxGeometry>
        </mxCell>
        <mxCell id="1vNkuXaYnxZmw4keYtQA-5" value="" style="endArrow=classic;html=1;rounded=0;" parent="1" edge="1">
          <mxGeometry relative="1" as="geometry">
            <mxPoint x="300" y="180" as="sourcePoint" />
            <mxPoint x="580" y="180" as="targetPoint" />
          </mxGeometry>
        </mxCell>
        <mxCell id="1vNkuXaYnxZmw4keYtQA-6" value="Autenticazione&lt;br&gt;{username, password}&lt;br&gt;" style="edgeLabel;resizable=0;html=1;align=center;verticalAlign=middle;" parent="1vNkuXaYnxZmw4keYtQA-5" connectable="0" vertex="1">
          <mxGeometry relative="1" as="geometry">
            <mxPoint y="-20" as="offset" />
          </mxGeometry>
        </mxCell>
        <mxCell id="1vNkuXaYnxZmw4keYtQA-11" value="" style="curved=1;endArrow=classic;html=1;rounded=0;" parent="1" edge="1">
          <mxGeometry width="50" height="50" relative="1" as="geometry">
            <mxPoint x="590" y="180" as="sourcePoint" />
            <mxPoint x="590" y="240" as="targetPoint" />
            <Array as="points">
              <mxPoint x="620" y="180" />
              <mxPoint x="620" y="240" />
            </Array>
          </mxGeometry>
        </mxCell>
        <mxCell id="1vNkuXaYnxZmw4keYtQA-12" value="Creazione&amp;nbsp;&lt;br&gt;della&lt;br&gt;sessione" style="edgeLabel;html=1;align=center;verticalAlign=middle;resizable=0;points=[];" parent="1vNkuXaYnxZmw4keYtQA-11" vertex="1" connectable="0">
          <mxGeometry x="-0.2194" y="-2" relative="1" as="geometry">
            <mxPoint x="32" y="13" as="offset" />
          </mxGeometry>
        </mxCell>
        <mxCell id="1vNkuXaYnxZmw4keYtQA-14" value="" style="endArrow=classic;html=1;rounded=0;" parent="1" edge="1">
          <mxGeometry relative="1" as="geometry">
            <mxPoint x="580" y="240" as="sourcePoint" />
            <mxPoint x="300" y="240" as="targetPoint" />
          </mxGeometry>
        </mxCell>
        <mxCell id="1vNkuXaYnxZmw4keYtQA-15" value="Set-Cookie: session = 123" style="edgeLabel;resizable=0;html=1;align=center;verticalAlign=middle;" parent="1vNkuXaYnxZmw4keYtQA-14" connectable="0" vertex="1">
          <mxGeometry relative="1" as="geometry">
            <mxPoint y="-10" as="offset" />
          </mxGeometry>
        </mxCell>
        <mxCell id="1vNkuXaYnxZmw4keYtQA-16" value="" style="endArrow=classic;html=1;rounded=0;" parent="1" edge="1">
          <mxGeometry relative="1" as="geometry">
            <mxPoint x="300" y="320" as="sourcePoint" />
            <mxPoint x="580" y="320" as="targetPoint" />
          </mxGeometry>
        </mxCell>
        <mxCell id="1vNkuXaYnxZmw4keYtQA-17" value="Richiesta autenticata&lt;br&gt;Cookie: session = 123" style="edgeLabel;resizable=0;html=1;align=center;verticalAlign=middle;" parent="1vNkuXaYnxZmw4keYtQA-16" connectable="0" vertex="1">
          <mxGeometry relative="1" as="geometry">
            <mxPoint y="-20" as="offset" />
          </mxGeometry>
        </mxCell>
        <mxCell id="1vNkuXaYnxZmw4keYtQA-18" value="" style="endArrow=classic;html=1;rounded=0;" parent="1" edge="1">
          <mxGeometry relative="1" as="geometry">
            <mxPoint x="580" y="380" as="sourcePoint" />
            <mxPoint x="300" y="380" as="targetPoint" />
          </mxGeometry>
        </mxCell>
        <mxCell id="1vNkuXaYnxZmw4keYtQA-19" value="Risorsa protetta" style="edgeLabel;resizable=0;html=1;align=center;verticalAlign=middle;" parent="1vNkuXaYnxZmw4keYtQA-18" connectable="0" vertex="1">
          <mxGeometry relative="1" as="geometry">
            <mxPoint y="-10" as="offset" />
          </mxGeometry>
        </mxCell>
        <mxCell id="1vNkuXaYnxZmw4keYtQA-20" value="" style="curved=1;endArrow=classic;html=1;rounded=0;" parent="1" edge="1">
          <mxGeometry width="50" height="50" relative="1" as="geometry">
            <mxPoint x="590" y="320" as="sourcePoint" />
            <mxPoint x="590" y="380" as="targetPoint" />
            <Array as="points">
              <mxPoint x="620" y="320" />
              <mxPoint x="620" y="380" />
            </Array>
          </mxGeometry>
        </mxCell>
        <mxCell id="1vNkuXaYnxZmw4keYtQA-21" value="Verifica&lt;br&gt;della&lt;br&gt;sessione" style="edgeLabel;html=1;align=center;verticalAlign=middle;resizable=0;points=[];" parent="1vNkuXaYnxZmw4keYtQA-20" vertex="1" connectable="0">
          <mxGeometry x="-0.2194" y="-2" relative="1" as="geometry">
            <mxPoint x="32" y="13" as="offset" />
          </mxGeometry>
        </mxCell>
        <mxCell id="1vNkuXaYnxZmw4keYtQA-22" value="" style="curved=1;endArrow=classic;html=1;rounded=0;" parent="1" edge="1">
          <mxGeometry width="50" height="50" relative="1" as="geometry">
            <mxPoint x="290" y="240" as="sourcePoint" />
            <mxPoint x="290" y="320" as="targetPoint" />
            <Array as="points">
              <mxPoint x="260" y="240" />
              <mxPoint x="260" y="320" />
            </Array>
          </mxGeometry>
        </mxCell>
        <mxCell id="1vNkuXaYnxZmw4keYtQA-23" value="Memorizzazione" style="edgeLabel;html=1;align=center;verticalAlign=middle;resizable=0;points=[];" parent="1vNkuXaYnxZmw4keYtQA-22" vertex="1" connectable="0">
          <mxGeometry x="0.0169" relative="1" as="geometry">
            <mxPoint x="-50" y="-1" as="offset" />
          </mxGeometry>
        </mxCell>
      </root>
    </mxGraphModel>
  </diagram>
</mxfile>
